<svg id="Layer_1" data-name="Layer 1" xmlns="http://www.w3.org/2000/svg" viewBox="0 0 566.28 494.73"><defs><style>.cls-1{fill:#ce2029;}.cls-2{fill:#fff;}</style></defs><title>carChallenge</title><polygon class="cls-1" points="462.86 283.86 462.63 306.33 539.81 307.15 529.04 329.3 453.2 328.49 452.96 350.95 518.19 351.64 507.43 373.79 448.64 373.17 448.4 395.63 496.56 396.15 482.82 424.42 412.13 423.67 411.9 446.13 471.96 446.77 448.65 494.73 139.25 491.44 0 244.21 144.47 0 428.21 3.02 433.14 11.77 364.57 11.04 364.33 33.51 445.88 34.38 465.12 68.54 413.08 67.99 412.84 90.46 477.86 91.15 497.09 125.31 464.56 124.96 464.32 147.43 509.82 147.91 526.62 177.71 464 177.05 463.76 199.52 539.35 200.32 556.13 230.11 454.26 229.03 454.02 251.5 566.28 252.69 550.68 284.8 462.86 283.86"/><path class="cls-2" d="M353.59,324.79c-11.28,16.14-30.07,39.72-39.58,49.38-11.58-1.42-42.94-4.55-71.29-14.15-89.15-30.17-114.59-104.88-92.49-170.16C176,113.77,251.6,80.74,335.16,109c32.08,10.86,55.92,26.41,67.59,32.44-4.19,17.29-9.15,40.56-12.48,60.22l-12.44-1.31c1-27.51-2.78-45.84-19.16-60.11-8.18-7.76-22.59-15.55-36.76-20.34-61.55-20.83-109.41,13.69-130.24,75.24-24.36,72-2.72,130.87,57.71,151.32,38.05,12.88,62.63,1.66,94.28-29.2Z" transform="translate(-5.91 -86.19)"/><path class="cls-2" d="M239.4,316.25c13-14.83,34.17-36.24,44.67-44.83,11.35,2.66,42.2,9.15,69.35,21.74,85.39,39.59,102.63,116.61,73.64,179.13-33.8,72.88-112.53,97.58-192.56,60.47-30.72-14.25-52.75-32.28-63.71-39.53,6-16.74,13.47-39.34,18.89-58.52l12.24,2.63c-4,27.25-2.18,45.87,12.56,61.82,7.31,8.6,20.79,17.89,34.37,24.19,59,27.33,110.24-1.84,137.57-60.79,32-68.95,16.79-129.81-41.08-156.65-36.44-16.9-62.09-8.39-96.88,18.88Z" transform="translate(-5.91 -86.19)"/></svg>