<svg xmlns="http://www.w3.org/2000/svg" xmlns:xlink="http://www.w3.org/1999/xlink" viewBox="0,0,256,256" width="64px" height="64px"><defs><linearGradient x1="32" y1="9.083" x2="32" y2="54.676" gradientUnits="userSpaceOnUse" id="color-1"><stop offset="0" stop-color="#ff1a1a"></stop><stop offset="1" stop-color="#ff2222"></stop></linearGradient><linearGradient x1="32.028" y1="9.75" x2="32.028" y2="54.625" gradientUnits="userSpaceOnUse" id="color-2"><stop offset="0" stop-color="#ff1a1a"></stop><stop offset="1" stop-color="#ff2222"></stop></linearGradient><linearGradient x1="21.5" y1="22" x2="21.5" y2="42" gradientUnits="userSpaceOnUse" id="color-3"><stop offset="0" stop-color="#6dc7ff"></stop><stop offset="1" stop-color="#ffffff"></stop></linearGradient></defs><g fill="none" fill-rule="nonzero" stroke="none" stroke-width="1" stroke-linecap="butt" stroke-linejoin="miter" stroke-miterlimit="10" stroke-dasharray="" stroke-dashoffset="0" font-family="none" font-weight="none" font-size="none" text-anchor="none" style="mix-blend-mode: normal"><g transform="scale(4,4)"><path d="M50,55h-36c-2.757,0 -5,-2.243 -5,-5v-36c0,-2.757 2.243,-5 5,-5h36c2.757,0 5,2.243 5,5v36c0,2.757 -2.243,5 -5,5zM14,11c-1.654,0 -3,1.346 -3,3v36c0,1.654 1.346,3 3,3h36c1.654,0 3,-1.346 3,-3v-36c0,-1.654 -1.346,-3 -3,-3z" fill="url(#color-1)"></path><path d="M45.868,47.804l-5.288,-5.804h-15.58v-20h15.535l5.278,-5.804c0.401,-0.441 0.115,-1.196 -0.451,-1.196h-20.362l-7,7v20l7,7h20.417c0.567,0 0.853,-0.755 0.451,-1.196zM25.828,17h16.549l-2.728,3h-16.821zM20,22h3v20h-3zM25.828,47l-3,-3h16.868l2.733,3z" fill="url(#color-2)"></path><path d="M20,22h3v20h-3z" fill="url(#color-3)"></path></g></g></svg>